<svg width="102" height="33" viewBox="0 0 102 33" fill="none" xmlns="http://www.w3.org/2000/svg">
<rect width="102" height="32" rx="6" fill="#2DA44E"/>
<path fill-rule="evenodd" clip-rule="evenodd" d="M22.72 11.22C22.8622 11.0875 23.0502 11.0154 23.2445 11.0188C23.4388 11.0223 23.6242 11.101 23.7616 11.2384C23.899 11.3758 23.9778 11.5612 23.9812 11.7555C23.9846 11.9498 23.9125 12.1378 23.78 12.28L20.06 16L23.78 19.72C23.8537 19.7887 23.9128 19.8715 23.9538 19.9635C23.9948 20.0555 24.0168 20.1548 24.0186 20.2555C24.0204 20.3562 24.0018 20.4562 23.9641 20.5496C23.9264 20.643 23.8703 20.7278 23.799 20.799C23.7278 20.8703 23.643 20.9264 23.5496 20.9641C23.4562 21.0018 23.3562 21.0204 23.2555 21.0186C23.1548 21.0168 23.0555 20.9948 22.9635 20.9538C22.8715 20.9128 22.7887 20.8537 22.72 20.78L18.47 16.53C18.3296 16.3894 18.2507 16.1988 18.2507 16C18.2507 15.8013 18.3296 15.6106 18.47 15.47L22.72 11.22V11.22ZM29.28 11.22C29.2113 11.1463 29.1285 11.0872 29.0365 11.0462C28.9445 11.0052 28.8452 10.9832 28.7445 10.9814C28.6438 10.9796 28.5438 10.9982 28.4504 11.0359C28.357 11.0736 28.2722 11.1297 28.201 11.201C28.1297 11.2722 28.0736 11.357 28.0359 11.4504C27.9982 11.5438 27.9796 11.6438 27.9814 11.7445C27.9832 11.8452 28.0052 11.9445 28.0462 12.0365C28.0872 12.1285 28.1463 12.2113 28.22 12.28L31.94 16L28.22 19.72C28.1463 19.7887 28.0872 19.8715 28.0462 19.9635C28.0052 20.0555 27.9832 20.1548 27.9814 20.2555C27.9796 20.3562 27.9982 20.4562 28.0359 20.5496C28.0736 20.643 28.1297 20.7278 28.201 20.799C28.2722 20.8703 28.357 20.9264 28.4504 20.9641C28.5438 21.0018 28.6438 21.0204 28.7445 21.0186C28.8452 21.0168 28.9445 20.9948 29.0365 20.9538C29.1285 20.9128 29.2113 20.8537 29.28 20.78L33.53 16.53C33.6705 16.3894 33.7493 16.1988 33.7493 16C33.7493 15.8013 33.6705 15.6106 33.53 15.47L29.28 11.22V11.22Z" fill="white" fill-opacity="0.8"/>
<text fill="white" xml:space="preserve" style="white-space: pre" font-family="Segoe UI Variable Display, Segoe UI, Arial, sans-serif" font-size="14" font-weight="500" letter-spacing="0em"><tspan x="38.4502" y="21.7969">Code</tspan></text>
<path d="M76 14H84L80 18L76 14Z" fill="white" fill-opacity="0.8"/>
<rect x="0.5" y="0.5" width="101" height="31" rx="5.5" stroke="#1B1F24" stroke-opacity="0.15"/>
</svg>
