<svg xmlns="http://www.w3.org/2000/svg" width="1536" height="624" viewBox="0 0 1536 624" fill="none">
<rect width="1536" height="624" rx="8" fill="white"/>
<path fill-rule="evenodd" clip-rule="evenodd" d="M1254.71 239.293C1254.32 238.902 1253.68 238.902 1253.29 239.293L1246.93 245.657C1246.54 246.047 1246.54 246.681 1246.93 247.071C1247.32 247.462 1247.95 247.462 1248.34 247.071L1253 242.414V496C1253 499.866 1249.87 503 1246 503H1147V505H1246C1250.97 505 1255 500.971 1255 496V242.414L1259.66 247.071C1260.05 247.462 1260.68 247.462 1261.07 247.071C1261.46 246.681 1261.46 246.047 1261.07 245.657L1254.71 239.293ZM1020 505H1044V503H1020V505Z" fill="#0F7B0F"/>
<rect x="1044" y="480" width="103" height="48" rx="4" fill="#F6F6F6" fill-opacity="0.5"/>
<path d="M1074.25 495.509C1074.66 495.509 1075 495.173 1075 494.759C1075 494.345 1074.66 494.009 1074.25 494.009L1061.25 494.005C1060.84 494.005 1060.5 494.341 1060.5 494.755C1060.5 495.169 1060.84 495.505 1061.25 495.505L1074.25 495.509ZM1067.65 513.997L1067.75 514.004C1068.13 514.004 1068.44 513.722 1068.49 513.356L1068.5 513.254L1068.5 499.569L1072.22 503.289C1072.49 503.555 1072.9 503.579 1073.2 503.362L1073.28 503.289C1073.55 503.023 1073.57 502.606 1073.35 502.312L1073.28 502.228L1068.28 497.232C1068.02 496.966 1067.6 496.941 1067.31 497.159L1067.22 497.231L1062.22 502.228C1061.93 502.521 1061.93 502.996 1062.22 503.289C1062.49 503.555 1062.9 503.58 1063.2 503.362L1063.28 503.289L1067 499.576L1067 513.254C1067 513.633 1067.28 513.947 1067.65 513.997Z" fill="#212121"/>
<text fill="black" fill-opacity="0.8956" xml:space="preserve" style="white-space: pre" font-family="Segoe UI Variable Text, Segoe UI, Arial, sans-serif" font-size="14" font-weight="600" letter-spacing="0em"><tspan x="1092" y="509.797">Push</tspan></text>
<rect x="1043.5" y="479.5" width="104" height="49" rx="4.5" stroke="black" stroke-opacity="0.0578"/>
<path fill-rule="evenodd" clip-rule="evenodd" d="M1177 240V216H1179V240H1177ZM1064 288V304C1064 307.866 1067.13 311 1071 311H1124H1170C1173.87 311 1177 307.866 1177 304V288H1179V304C1179 308.971 1174.97 313 1170 313H1125V444C1125 448.971 1120.97 453 1116 453H1046.41L1051.07 457.657C1051.46 458.047 1051.46 458.681 1051.07 459.071C1050.68 459.462 1050.05 459.462 1049.66 459.071L1043.29 452.707C1042.9 452.317 1042.9 451.683 1043.29 451.293L1049.66 444.929C1050.05 444.538 1050.68 444.538 1051.07 444.929C1051.46 445.319 1051.46 445.953 1051.07 446.343L1046.41 451H1116C1119.87 451 1123 447.866 1123 444V313H1071C1066.03 313 1062 308.971 1062 304V288H1064ZM1062 216V240H1064V216H1062Z" fill="#9D5D00"/>
<rect x="1130" y="240" width="96" height="48" rx="4" fill="#F6F6F6" fill-opacity="0.5"/>
<path d="M1160.25 272.5C1160.66 272.5 1161 272.836 1161 273.25C1161 273.664 1160.66 274 1160.25 274L1147.25 274.004C1146.84 274.004 1146.5 273.668 1146.5 273.254C1146.5 272.84 1146.84 272.504 1147.25 272.504L1160.25 272.5ZM1153.65 254.012L1153.75 254.005C1154.13 254.005 1154.44 254.287 1154.49 254.653L1154.5 254.755L1154.5 268.44L1158.22 264.72C1158.49 264.453 1158.9 264.429 1159.2 264.647L1159.28 264.72C1159.55 264.986 1159.57 265.403 1159.35 265.696L1159.28 265.78L1154.28 270.777C1154.02 271.043 1153.6 271.067 1153.31 270.85L1153.22 270.777L1148.22 265.781C1147.93 265.488 1147.93 265.013 1148.22 264.72C1148.49 264.454 1148.9 264.429 1149.2 264.647L1149.28 264.719L1153 268.433L1153 254.755C1153 254.375 1153.28 254.061 1153.65 254.012L1153.75 254.005L1153.65 254.012Z" fill="#212121"/>
<text fill="black" fill-opacity="0.8956" xml:space="preserve" style="white-space: pre" font-family="Segoe UI Variable Text, Segoe UI, Arial, sans-serif" font-size="14" font-weight="600" letter-spacing="0em"><tspan x="1178" y="269.797">Pull</tspan></text>
<rect x="1129.5" y="239.5" width="97" height="49" rx="4.5" stroke="black" stroke-opacity="0.0578"/>
<rect x="1008" y="240" width="110" height="48" rx="4" fill="#F6F6F6" fill-opacity="0.5"/>
<path d="M1025.5 256.627L1025.5 258.75V269.254C1025.5 271.049 1026.96 272.504 1028.75 272.504L1037.37 272.504C1037.06 273.378 1036.22 274.004 1035.24 274.004H1028.75C1026.13 274.004 1024 271.878 1024 269.254V258.75C1024 257.769 1024.63 256.935 1025.5 256.627ZM1037.75 254C1038.99 254 1040 255.007 1040 256.25V269.25C1040 270.493 1038.99 271.5 1037.75 271.5H1028.75C1027.51 271.5 1026.5 270.493 1026.5 269.25V256.25C1026.5 255.007 1027.51 254 1028.75 254H1037.75ZM1037.75 255.5H1028.75C1028.34 255.5 1028 255.836 1028 256.25V269.25C1028 269.664 1028.34 270 1028.75 270H1037.75C1038.16 270 1038.5 269.664 1038.5 269.25V256.25C1038.5 255.836 1038.16 255.5 1037.75 255.5Z" fill="#212121"/>
<text fill="black" fill-opacity="0.8956" xml:space="preserve" style="white-space: pre" font-family="Segoe UI Variable Text, Segoe UI, Arial, sans-serif" font-size="14" font-weight="600" letter-spacing="0em"><tspan x="1056" y="269.797">Clone</tspan></text>
<rect x="1007.5" y="239.5" width="111" height="49" rx="4.5" stroke="black" stroke-opacity="0.0578"/>
<path fill-rule="evenodd" clip-rule="evenodd" d="M287 216V240H289V216H287ZM287 288V496C287 500.971 291.029 505 296 505H463.586L458.929 509.657C458.538 510.047 458.538 510.681 458.929 511.071C459.319 511.462 459.953 511.462 460.343 511.071L466.707 504.707C467.098 504.317 467.098 503.683 466.707 503.293L460.343 496.929C459.953 496.538 459.319 496.538 458.929 496.929C458.538 497.319 458.538 497.953 458.929 498.343L463.586 503H296C292.134 503 289 499.866 289 496V288H287Z" fill="#005FB7"/>
<rect x="202" y="240" width="172" height="48" rx="4" fill="#F6F6F6" fill-opacity="0.5"/>
<path d="M230.251 257.18C229.999 257.509 230.063 257.98 230.392 258.231C232.18 259.595 233.25 261.708 233.25 264C233.25 267.736 230.424 270.812 226.793 271.207L227.47 270.53C227.763 270.237 227.763 269.763 227.47 269.47C227.203 269.203 226.787 269.179 226.493 269.397L226.409 269.47L224.409 271.47C224.143 271.736 224.119 272.153 224.336 272.446L224.409 272.53L226.409 274.53C226.702 274.823 227.177 274.823 227.47 274.53C227.736 274.264 227.76 273.847 227.542 273.554L227.47 273.47L226.719 272.721C231.215 272.355 234.75 268.59 234.75 264C234.75 261.235 233.458 258.683 231.302 257.039C230.972 256.787 230.502 256.851 230.251 257.18ZM224.53 253.47C224.237 253.763 224.237 254.237 224.53 254.53L225.28 255.279C220.784 255.646 217.25 259.41 217.25 264C217.25 266.644 218.431 269.097 220.431 270.749C220.75 271.013 221.223 270.968 221.487 270.649C221.75 270.329 221.705 269.856 221.386 269.593C219.728 268.223 218.75 266.192 218.75 264C218.75 260.264 221.575 257.189 225.206 256.793L224.53 257.47C224.237 257.763 224.237 258.237 224.53 258.53C224.823 258.823 225.298 258.823 225.591 258.53L227.591 256.53C227.884 256.237 227.884 255.763 227.591 255.47L225.591 253.47C225.298 253.177 224.823 253.177 224.53 253.47Z" fill="#212121"/>
<text fill="black" fill-opacity="0.8956" xml:space="preserve" style="white-space: pre" font-family="Segoe UI Variable Text, Segoe UI, Arial, sans-serif" font-size="14" font-weight="600" letter-spacing="0em"><tspan x="250" y="269.797">Fetch Upstream</tspan></text>
<rect x="201.5" y="239.5" width="173" height="49" rx="4.5" stroke="black" stroke-opacity="0.0578"/>
<g filter="url(#filter0_d_20_10)">
<rect x="492" y="408" width="528" height="192" rx="8" fill="white" fill-opacity="0.7"/>
<text fill="black" fill-opacity="0.8956" xml:space="preserve" style="white-space: pre" font-family="Segoe UI Variable Display, Segoe UI, Arial, sans-serif" font-size="28" font-weight="600" letter-spacing="0px"><tspan x="661" y="461.594">&lt;Repo-Name&gt;</tspan></text>
<path d="M668.5 490C668.5 484.477 672.977 480 678.5 480H730.5C736.023 480 740.5 484.477 740.5 490V490C740.5 495.523 736.023 500 730.5 500H678.5C672.977 500 668.5 495.523 668.5 490V490Z" fill="black" fill-opacity="0.0578"/>
<text fill="black" fill-opacity="0.8956" xml:space="preserve" style="white-space: pre" font-family="Segoe UI Variable Small, Segoe UI, Arial, sans-serif" font-size="12" letter-spacing="0em"><tspan x="680.5" y="493.969">You Own</tspan></text>
<path d="M748.5 490C748.5 484.477 752.977 480 758.5 480H833.5C839.023 480 843.5 484.477 843.5 490V490C843.5 495.523 839.023 500 833.5 500H758.5C752.977 500 748.5 495.523 748.5 490V490Z" fill="black" fill-opacity="0.0578"/>
<text fill="black" fill-opacity="0.8956" xml:space="preserve" style="white-space: pre" font-family="Segoe UI Variable Small, Segoe UI, Arial, sans-serif" font-size="12" letter-spacing="0em"><tspan x="760.5" y="493.969">Read &amp; Write</tspan></text>
<rect x="516" y="524" width="190" height="48" rx="4" fill="black" fill-opacity="0.0578"/>
<path d="M533.503 540.627L533.5 542.75V553.254C533.5 555.049 534.955 556.504 536.75 556.504L545.366 556.504C545.057 557.378 544.224 558.004 543.244 558.004H536.75C534.127 558.004 532 555.878 532 553.254V542.75C532 541.769 532.627 540.935 533.503 540.627ZM545.75 538C546.993 538 548 539.007 548 540.25V553.25C548 554.493 546.993 555.5 545.75 555.5H536.75C535.507 555.5 534.5 554.493 534.5 553.25V540.25C534.5 539.007 535.507 538 536.75 538H545.75ZM545.75 539.5H536.75C536.336 539.5 536 539.836 536 540.25V553.25C536 553.664 536.336 554 536.75 554H545.75C546.164 554 546.5 553.664 546.5 553.25V540.25C546.5 539.836 546.164 539.5 545.75 539.5Z" fill="#212121"/>
<text fill="black" fill-opacity="0.8956" xml:space="preserve" style="white-space: pre" font-family="Segoe UI Variable Text, Segoe UI, Arial, sans-serif" font-size="14" font-weight="600" letter-spacing="0em"><tspan x="564" y="553.797">Clone of your Fork</tspan></text>
<rect x="722" y="524" width="129" height="48" rx="4" fill="black" fill-opacity="0.0578"/>
<path d="M776.547 546.931L766.069 536.453C765.465 535.849 764.487 535.849 763.883 536.453L761.707 538.629L764.467 541.389C765.109 541.172 765.844 541.318 766.355 541.829C766.87 542.344 767.014 543.085 766.791 543.729L769.452 546.389C770.096 546.167 770.838 546.311 771.352 546.826C772.07 547.544 772.07 548.708 771.352 549.427C770.633 550.145 769.469 550.145 768.75 549.427C768.21 548.886 768.077 548.092 768.35 547.426L765.869 544.945V551.474C766.044 551.561 766.209 551.676 766.355 551.822C767.074 552.54 767.074 553.704 766.355 554.423C765.637 555.141 764.472 555.141 763.755 554.423C763.036 553.704 763.036 552.54 763.755 551.822C763.932 551.645 764.138 551.51 764.357 551.421V544.831C764.138 544.741 763.933 544.608 763.755 544.43C763.211 543.886 763.08 543.087 763.359 542.419L760.638 539.698L753.452 546.883C752.849 547.487 752.849 548.465 753.452 549.069L763.932 559.547C764.535 560.151 765.513 560.151 766.118 559.547L776.547 549.118C777.151 548.514 777.151 547.535 776.547 546.931V546.931Z" fill="black" fill-opacity="0.8956"/>
<text fill="black" fill-opacity="0.8956" xml:space="preserve" style="white-space: pre" font-family="Segoe UI Variable Text, Segoe UI, Arial, sans-serif" font-size="14" font-weight="600" letter-spacing="0em"><tspan x="789" y="553.797">Git</tspan></text>
<rect x="867" y="524" width="129" height="48" rx="4" fill="black" fill-opacity="0.0578"/>
<path d="M907.7 552.4C908.197 552.4 908.6 551.997 908.6 551.5C908.6 551.003 908.197 550.6 907.7 550.6C907.203 550.6 906.8 551.003 906.8 551.5C906.8 551.997 907.203 552.4 907.7 552.4ZM893.285 549.212C893.097 549.651 893 550.123 893 550.6V553C893 554.325 894.075 555.4 895.4 555.4H909.8C911.125 555.4 912.2 554.325 912.2 553V550.6C912.2 550.14 912.127 549.677 911.972 549.234C910.986 546.414 909.713 543.7 909.027 542.305C908.628 541.493 907.802 541 906.912 541H898.387C897.427 541 896.559 541.572 896.181 542.455L893.285 549.212ZM898.387 542.2H906.912C907.36 542.2 907.759 542.446 907.95 542.835C908.514 543.981 909.474 546.02 910.336 548.26C910.164 548.221 909.984 548.2 909.8 548.2H895.4C895.267 548.2 895.137 548.211 895.011 548.231L897.284 542.927C897.473 542.486 897.907 542.2 898.387 542.2ZM911 553C911 553.663 910.463 554.2 909.8 554.2H895.4C894.737 554.2 894.2 553.663 894.2 553V550.6C894.2 549.937 894.737 549.4 895.4 549.4H909.8C910.463 549.4 911 549.937 911 550.6V553Z" fill="#212121"/>
<text fill="black" fill-opacity="0.8956" xml:space="preserve" style="white-space: pre" font-family="Segoe UI Variable Text, Segoe UI, Arial, sans-serif" font-size="14" font-weight="600" letter-spacing="0em"><tspan x="927" y="553.797">Local</tspan></text>
<rect x="491.5" y="407.5" width="529" height="193" rx="8.5" stroke="black" stroke-opacity="0.0578"/>
</g>
<g filter="url(#filter1_d_20_10)">
<rect x="984" y="24" width="528" height="192" rx="8" fill="white" fill-opacity="0.7"/>
<text fill="black" fill-opacity="0.8956" xml:space="preserve" font-family="Segoe UI Variable Display, Segoe UI, Arial, sans-serif" font-size="28" font-weight="600" letter-spacing="0px"><tspan x="1057" y="77.5938">&lt;Username&gt; / &lt;Repo-Name&gt;</tspan></text>
<path d="M1128 106C1128 100.477 1132.48 96 1138 96H1175C1180.52 96 1185 100.477 1185 106V106C1185 111.523 1180.52 116 1175 116H1138C1132.48 116 1128 111.523 1128 106V106Z" fill="black" fill-opacity="0.0578"/>
<text fill="black" fill-opacity="0.8956" xml:space="preserve" style="white-space: pre" font-family="Segoe UI Variable Small, Segoe UI, Arial, sans-serif" font-size="12" letter-spacing="0em"><tspan x="1140" y="109.969">Origin</tspan></text>
<path d="M1193 106C1193 100.477 1197.48 96 1203 96H1255C1260.52 96 1265 100.477 1265 106V106C1265 111.523 1260.52 116 1255 116H1203C1197.48 116 1193 111.523 1193 106V106Z" fill="black" fill-opacity="0.0578"/>
<text fill="black" fill-opacity="0.8956" xml:space="preserve" style="white-space: pre" font-family="Segoe UI Variable Small, Segoe UI, Arial, sans-serif" font-size="12" letter-spacing="0em"><tspan x="1205" y="109.969">You Own</tspan></text>
<path d="M1273 106C1273 100.477 1277.48 96 1283 96H1358C1363.52 96 1368 100.477 1368 106V106C1368 111.523 1363.52 116 1358 116H1283C1277.48 116 1273 111.523 1273 106V106Z" fill="black" fill-opacity="0.0578"/>
<text fill="black" fill-opacity="0.8956" xml:space="preserve" style="white-space: pre" font-family="Segoe UI Variable Small, Segoe UI, Arial, sans-serif" font-size="12" letter-spacing="0em"><tspan x="1285" y="109.969">Read &amp; Write</tspan></text>
<rect x="1008" y="140" width="149.333" height="48" rx="4" fill="black" fill-opacity="0.0578"/>
<path d="M1039.17 157.5C1039.17 159.263 1037.86 160.722 1036.17 160.965V163.5H1042.42C1043.66 163.5 1044.67 162.493 1044.67 161.25V160.855C1043.22 160.425 1042.17 159.086 1042.17 157.5C1042.17 155.567 1043.73 154 1045.67 154C1047.6 154 1049.17 155.567 1049.17 157.5C1049.17 159.263 1047.86 160.722 1046.17 160.965V161.25C1046.17 163.321 1044.49 165 1042.42 165H1036.17V167.035C1037.86 167.278 1039.17 168.737 1039.17 170.5C1039.17 172.433 1037.6 174 1035.67 174C1033.73 174 1032.17 172.433 1032.17 170.5C1032.17 168.914 1033.22 167.575 1034.67 167.145V160.855C1033.22 160.425 1032.17 159.086 1032.17 157.5C1032.17 155.567 1033.73 154 1035.67 154C1037.6 154 1039.17 155.567 1039.17 157.5ZM1035.67 159.5C1036.77 159.5 1037.67 158.605 1037.67 157.5C1037.67 156.395 1036.77 155.5 1035.67 155.5C1034.56 155.5 1033.67 156.395 1033.67 157.5C1033.67 158.605 1034.56 159.5 1035.67 159.5ZM1045.67 159.5C1046.77 159.5 1047.67 158.605 1047.67 157.5C1047.67 156.395 1046.77 155.5 1045.67 155.5C1044.56 155.5 1043.67 156.395 1043.67 157.5C1043.67 158.605 1044.56 159.5 1045.67 159.5ZM1037.67 170.5C1037.67 169.395 1036.77 168.5 1035.67 168.5C1034.56 168.5 1033.67 169.395 1033.67 170.5C1033.67 171.605 1034.56 172.5 1035.67 172.5C1036.77 172.5 1037.67 171.605 1037.67 170.5Z" fill="#212121"/>
<text fill="black" fill-opacity="0.8956" xml:space="preserve" style="white-space: pre" font-family="Segoe UI Variable Text, Segoe UI, Arial, sans-serif" font-size="14" font-weight="600" letter-spacing="0em"><tspan x="1064.17" y="169.797">Your Fork</tspan></text>
<rect x="1173.33" y="140" width="149.333" height="48" rx="4" fill="black" fill-opacity="0.0578"/>
<path fill-rule="evenodd" clip-rule="evenodd" d="M1213 152.296C1206.37 152.296 1201 157.669 1201 164.296C1201 169.598 1204.44 174.096 1209.21 175.683C1209.81 175.794 1210.03 175.423 1210.03 175.106C1210.03 174.82 1210.02 173.874 1210.01 172.872C1206.67 173.598 1205.97 171.456 1205.97 171.456C1205.42 170.069 1204.63 169.7 1204.63 169.7C1203.55 168.955 1204.72 168.97 1204.72 168.97C1205.92 169.055 1206.56 170.207 1206.56 170.207C1207.63 172.042 1209.36 171.511 1210.05 171.205C1210.16 170.429 1210.47 169.9 1210.81 169.6C1208.14 169.297 1205.34 168.267 1205.34 163.669C1205.34 162.359 1205.81 161.289 1206.58 160.448C1206.45 160.146 1206.04 158.926 1206.7 157.273C1206.7 157.273 1207.7 156.95 1210 158.503C1210.95 158.237 1211.98 158.104 1213 158.099C1214.02 158.104 1215.05 158.237 1216.01 158.503C1218.3 156.95 1219.3 157.273 1219.3 157.273C1219.96 158.926 1219.55 160.146 1219.42 160.448C1220.19 161.289 1220.66 162.359 1220.66 163.669C1220.66 168.279 1217.85 169.293 1215.18 169.59C1215.61 169.963 1215.99 170.693 1215.99 171.813C1215.99 173.418 1215.98 174.71 1215.98 175.106C1215.98 175.425 1216.19 175.799 1216.8 175.681C1221.57 174.093 1225 169.596 1225 164.296C1225 157.669 1219.63 152.296 1213 152.296Z" fill="black" fill-opacity="0.8956"/>
<path d="M1205.55 169.526C1205.52 169.585 1205.42 169.603 1205.34 169.562C1205.25 169.523 1205.2 169.442 1205.23 169.382C1205.26 169.321 1205.35 169.304 1205.44 169.344C1205.53 169.384 1205.58 169.466 1205.55 169.526V169.526Z" fill="black" fill-opacity="0.8956"/>
<path d="M1206.03 170.068C1205.97 170.121 1205.86 170.096 1205.79 170.012C1205.71 169.929 1205.69 169.817 1205.75 169.763C1205.81 169.71 1205.92 169.735 1206 169.818C1206.08 169.903 1206.09 170.014 1206.03 170.068Z" fill="black" fill-opacity="0.8956"/>
<path d="M1206.5 170.759C1206.43 170.81 1206.31 170.762 1206.24 170.655C1206.16 170.549 1206.16 170.421 1206.24 170.369C1206.31 170.318 1206.43 170.364 1206.51 170.47C1206.58 170.579 1206.58 170.707 1206.5 170.759Z" fill="black" fill-opacity="0.8956"/>
<path d="M1207.15 171.427C1207.09 171.499 1206.95 171.48 1206.84 171.381C1206.74 171.284 1206.71 171.147 1206.78 171.074C1206.84 171.001 1206.98 171.022 1207.09 171.12C1207.19 171.217 1207.22 171.355 1207.15 171.427Z" fill="black" fill-opacity="0.8956"/>
<path d="M1208.05 171.814C1208.02 171.908 1207.88 171.951 1207.75 171.911C1207.61 171.87 1207.52 171.76 1207.55 171.665C1207.58 171.57 1207.71 171.526 1207.85 171.568C1207.99 171.609 1208.07 171.719 1208.05 171.814V171.814Z" fill="black" fill-opacity="0.8956"/>
<path d="M1209.03 171.886C1209.03 171.985 1208.92 172.067 1208.77 172.069C1208.63 172.072 1208.51 171.992 1208.51 171.895C1208.51 171.795 1208.63 171.714 1208.77 171.711C1208.91 171.708 1209.03 171.788 1209.03 171.886Z" fill="black" fill-opacity="0.8956"/>
<path d="M1209.94 171.731C1209.96 171.827 1209.86 171.926 1209.72 171.953C1209.58 171.978 1209.45 171.918 1209.43 171.823C1209.42 171.724 1209.52 171.625 1209.66 171.599C1209.8 171.574 1209.92 171.632 1209.94 171.731V171.731Z" fill="black" fill-opacity="0.8956"/>
<text fill="black" fill-opacity="0.8956" xml:space="preserve" style="white-space: pre" font-family="Segoe UI Variable Text, Segoe UI, Arial, sans-serif" font-size="14" font-weight="600" letter-spacing="0em"><tspan x="1237" y="169.797">GitHub</tspan></text>
<rect x="1338.67" y="140" width="149.333" height="48" rx="4" fill="black" fill-opacity="0.0578"/>
<path d="M1374.42 161.75C1374.89 159.043 1377.26 157 1380.08 157C1382.91 157 1385.27 159.043 1385.75 161.75L1385.83 161.75C1388.04 161.75 1389.83 163.541 1389.83 165.75C1389.83 167.959 1388.04 169.75 1385.83 169.75H1374.33C1372.12 169.75 1370.33 167.959 1370.33 165.75C1370.33 163.541 1372.12 161.75 1374.33 161.75L1374.42 161.75ZM1380.08 158.5C1377.82 158.5 1375.95 160.281 1375.84 162.537C1375.82 162.936 1375.49 163.25 1375.09 163.25L1374.33 163.25C1372.95 163.25 1371.83 164.369 1371.83 165.75C1371.83 167.131 1372.95 168.25 1374.33 168.25H1385.83C1387.21 168.25 1388.33 167.131 1388.33 165.75C1388.33 164.369 1387.21 163.25 1385.83 163.25L1385.08 163.25C1384.68 163.25 1384.35 162.936 1384.33 162.537C1384.22 160.281 1382.35 158.5 1380.08 158.5Z" fill="#212121"/>
<text fill="black" fill-opacity="0.8956" xml:space="preserve" style="white-space: pre" font-family="Segoe UI Variable Text, Segoe UI, Arial, sans-serif" font-size="14" font-weight="600" letter-spacing="0em"><tspan x="1404.33" y="169.797">Online</tspan></text>
<rect x="983.5" y="23.5" width="529" height="193" rx="8.5" stroke="black" stroke-opacity="0.0578"/>
</g>
<path fill-rule="evenodd" clip-rule="evenodd" d="M575.293 179.297C574.902 179.687 574.902 180.321 575.293 180.711L581.657 187.075C582.047 187.466 582.681 187.466 583.071 187.075C583.462 186.685 583.462 186.051 583.071 185.661L578.414 181.004H802V179.004H578.414L583.071 174.347C583.462 173.957 583.462 173.323 583.071 172.933C582.681 172.542 582.047 172.542 581.657 172.933L575.293 179.297ZM984 179.004H960V181.004H984V179.004Z" fill="#9D5D00"/>
<rect x="802" y="156" width="158" height="48" rx="4" fill="#F6F6F6" fill-opacity="0.5"/>
<path d="M820.2 177.15C821.903 176.865 823.2 175.384 823.2 173.6C823.2 171.612 821.588 170 819.6 170C817.612 170 816 171.612 816 173.6C816 175.384 817.297 176.865 819 177.15L819 182.05C817.297 182.335 816 183.816 816 185.6C816 187.588 817.612 189.2 819.6 189.2C821.588 189.2 823.2 187.588 823.2 185.6C823.2 183.816 821.903 182.335 820.2 182.05L820.2 177.15ZM819.6 176C818.275 176 817.2 174.925 817.2 173.6C817.2 172.275 818.275 171.2 819.6 171.2C820.925 171.2 822 172.275 822 173.6C822 174.925 820.925 176 819.6 176ZM822 185.6C822 186.925 820.925 188 819.6 188C818.275 188 817.2 186.925 817.2 185.6C817.2 184.275 818.275 183.2 819.6 183.2C820.925 183.2 822 184.275 822 185.6ZM826.976 175.824C827.21 176.059 827.59 176.059 827.824 175.824C828.059 175.59 828.059 175.21 827.824 174.976L826.449 173.6H828.6C830.257 173.6 831.6 174.943 831.6 176.6V182C829.612 182 828 183.612 828 185.6C828 187.588 829.612 189.2 831.6 189.2C833.588 189.2 835.2 187.588 835.2 185.6C835.2 184.033 834.198 182.699 832.8 182.205V176.6C832.8 174.28 830.92 172.4 828.6 172.4H826.449L827.824 171.024C828.059 170.79 828.059 170.41 827.824 170.176C827.59 169.941 827.21 169.941 826.976 170.176L824.576 172.576C824.341 172.81 824.341 173.19 824.576 173.424L826.976 175.824ZM834 185.6C834 186.925 832.925 188 831.6 188C830.275 188 829.2 186.925 829.2 185.6C829.2 184.275 830.275 183.2 831.6 183.2C832.925 183.2 834 184.275 834 185.6Z" fill="#212121"/>
<text fill="black" fill-opacity="0.8956" xml:space="preserve" style="white-space: pre" font-family="Segoe UI Variable Text, Segoe UI, Arial, sans-serif" font-size="14" font-weight="600" letter-spacing="0em"><tspan x="850" y="185.797">Pull Requests</tspan></text>
<rect x="801.5" y="155.5" width="159" height="49" rx="4.5" stroke="black" stroke-opacity="0.0578"/>
<rect x="576" y="96" width="172" height="48" rx="4" fill="#F6F6F6" fill-opacity="0.5"/>
<path d="M604.251 113.18C603.999 113.509 604.063 113.98 604.392 114.231C606.18 115.595 607.25 117.708 607.25 120C607.25 123.736 604.424 126.812 600.793 127.207L601.47 126.53C601.763 126.237 601.763 125.763 601.47 125.47C601.203 125.203 600.787 125.179 600.493 125.397L600.409 125.47L598.409 127.47C598.143 127.736 598.119 128.153 598.336 128.446L598.409 128.53L600.409 130.53C600.702 130.823 601.177 130.823 601.47 130.53C601.736 130.264 601.76 129.847 601.542 129.554L601.47 129.47L600.719 128.721C605.215 128.355 608.75 124.59 608.75 120C608.75 117.235 607.458 114.683 605.302 113.039C604.972 112.787 604.502 112.851 604.251 113.18ZM598.53 109.47C598.237 109.763 598.237 110.237 598.53 110.53L599.28 111.279C594.784 111.646 591.25 115.41 591.25 120C591.25 122.644 592.431 125.097 594.431 126.749C594.75 127.013 595.223 126.968 595.487 126.649C595.75 126.329 595.705 125.856 595.386 125.593C593.728 124.223 592.75 122.192 592.75 120C592.75 116.264 595.575 113.189 599.206 112.793L598.53 113.47C598.237 113.763 598.237 114.237 598.53 114.53C598.823 114.823 599.298 114.823 599.591 114.53L601.591 112.53C601.884 112.237 601.884 111.763 601.591 111.47L599.591 109.47C599.298 109.177 598.823 109.177 598.53 109.47Z" fill="#212121"/>
<text fill="black" fill-opacity="0.8956" xml:space="preserve" style="white-space: pre" font-family="Segoe UI Variable Text, Segoe UI, Arial, sans-serif" font-size="14" font-weight="600" letter-spacing="0em"><tspan x="624" y="125.797">Fetch Upstream</tspan></text>
<rect x="575.5" y="95.5" width="173" height="49" rx="4.5" stroke="black" stroke-opacity="0.0578"/>
<path fill-rule="evenodd" clip-rule="evenodd" d="M676 59H764C768.971 59 773 63.0294 773 68L773 89L957.586 89L952.929 84.3432C952.538 83.9526 952.538 83.3195 952.929 82.9289C953.319 82.5384 953.953 82.5384 954.343 82.9289L960.707 89.2929C961.098 89.6834 961.098 90.3166 960.707 90.7071L954.343 97.0711C953.953 97.4616 953.319 97.4616 952.929 97.0711C952.538 96.6806 952.538 96.0474 952.929 95.6569L957.586 91L773 91L773 112C773 116.971 768.971 121 764 121L748 121V119L764 119C767.866 119 771 115.866 771 112L771 90L771 68C771 64.134 767.866 61 764 61H676V59ZM576 121H552V119H576V121ZM552 61H576V59H552V61Z" fill="#005FB7"/>
<rect x="576" y="36" width="100" height="48" rx="4" fill="#F6F6F6" fill-opacity="0.5"/>
<path d="M599 53.5C599 55.2632 597.696 56.7219 596 56.9646V59.5H602.25C603.493 59.5 604.5 58.4926 604.5 57.25V56.8551C603.054 56.4248 602 55.0855 602 53.5C602 51.567 603.567 50 605.5 50C607.433 50 609 51.567 609 53.5C609 55.2632 607.696 56.7219 606 56.9646V57.25C606 59.3211 604.321 61 602.25 61H596V63.0354C597.696 63.2781 599 64.7368 599 66.5C599 68.433 597.433 70 595.5 70C593.567 70 592 68.433 592 66.5C592 64.9145 593.054 63.5752 594.5 63.1449V56.8551C593.054 56.4248 592 55.0855 592 53.5C592 51.567 593.567 50 595.5 50C597.433 50 599 51.567 599 53.5ZM595.5 55.5C596.605 55.5 597.5 54.6046 597.5 53.5C597.5 52.3954 596.605 51.5 595.5 51.5C594.395 51.5 593.5 52.3954 593.5 53.5C593.5 54.6046 594.395 55.5 595.5 55.5ZM605.5 55.5C606.605 55.5 607.5 54.6046 607.5 53.5C607.5 52.3954 606.605 51.5 605.5 51.5C604.395 51.5 603.5 52.3954 603.5 53.5C603.5 54.6046 604.395 55.5 605.5 55.5ZM597.5 66.5C597.5 65.3954 596.605 64.5 595.5 64.5C594.395 64.5 593.5 65.3954 593.5 66.5C593.5 67.6046 594.395 68.5 595.5 68.5C596.605 68.5 597.5 67.6046 597.5 66.5Z" fill="#212121"/>
<text fill="black" fill-opacity="0.8956" xml:space="preserve" style="white-space: pre" font-family="Segoe UI Variable Text, Segoe UI, Arial, sans-serif" font-size="14" font-weight="600" letter-spacing="0em"><tspan x="624" y="65.7969">Fork</tspan></text>
<rect x="575.5" y="35.5" width="101" height="49" rx="4.5" stroke="black" stroke-opacity="0.0578"/>
<g filter="url(#filter2_d_20_10)">
<rect x="24" y="24" width="528" height="192" rx="8" fill="white" fill-opacity="0.7"/>
<text fill="black" fill-opacity="0.8956" xml:space="preserve" style="white-space: pre" font-family="Segoe UI Variable Display, Segoe UI, Arial, sans-serif" font-size="28" font-weight="600" letter-spacing="0px"><tspan x="118" y="77.5938">Microsoft / &lt;Repo-Name&gt;</tspan></text>
<path d="M144 106C144 100.477 148.477 96 154 96H210C215.523 96 220 100.477 220 106V106C220 111.523 215.523 116 210 116H154C148.477 116 144 111.523 144 106V106Z" fill="black" fill-opacity="0.0578"/>
<text fill="black" fill-opacity="0.8956" xml:space="preserve" style="white-space: pre" font-family="Segoe UI Variable Small, Segoe UI, Arial, sans-serif" font-size="12" letter-spacing="0em"><tspan x="156" y="109.969">Upstream</tspan></text>
<path d="M228 106C228 100.477 232.477 96 238 96H334C339.523 96 344 100.477 344 106V106C344 111.523 339.523 116 334 116H238C232.477 116 228 111.523 228 106V106Z" fill="black" fill-opacity="0.0578"/>
<text fill="black" fill-opacity="0.8956" xml:space="preserve" style="white-space: pre" font-family="Segoe UI Variable Small, Segoe UI, Arial, sans-serif" font-size="12" letter-spacing="0em"><tspan x="240" y="109.969">Microsoft Owned</tspan></text>
<path d="M352 106C352 100.477 356.477 96 362 96H422C427.523 96 432 100.477 432 106V106C432 111.523 427.523 116 422 116H362C356.477 116 352 111.523 352 106V106Z" fill="black" fill-opacity="0.0578"/>
<text fill="black" fill-opacity="0.8956" xml:space="preserve" style="white-space: pre" font-family="Segoe UI Variable Small, Segoe UI, Arial, sans-serif" font-size="12" letter-spacing="0em"><tspan x="364" y="109.969">Read-Only</tspan></text>
<rect x="48" y="140" width="188" height="48" rx="4" fill="black" fill-opacity="0.0578"/>
<path d="M64 158C64 157.309 64.3153 156.707 64.7742 156.22C65.2294 155.738 65.853 155.337 66.5667 155.018C67.9958 154.377 69.9174 154 72 154C74.0826 154 76.0042 154.377 77.4333 155.018C78.147 155.337 78.7706 155.738 79.2258 156.22C79.6847 156.707 80 157.309 80 158V170C80 170.691 79.6847 171.293 79.2258 171.78C78.7706 172.262 78.147 172.663 77.4333 172.982C76.0042 173.623 74.0826 174 72 174C69.9174 174 67.9958 173.623 66.5667 172.982C65.853 172.663 65.2294 172.262 64.7742 171.78C64.3153 171.293 64 170.691 64 170V158ZM65.5 158C65.5 158.207 65.5904 158.459 65.8652 158.75C66.1438 159.046 66.582 159.346 67.1803 159.614C68.3752 160.149 70.0786 160.5 72 160.5C73.9214 160.5 75.6248 160.149 76.8197 159.614C77.418 159.346 77.8562 159.046 78.1348 158.75C78.4096 158.459 78.5 158.207 78.5 158C78.5 157.793 78.4096 157.541 78.1348 157.25C77.8562 156.954 77.418 156.654 76.8197 156.386C75.6248 155.851 73.9214 155.5 72 155.5C70.0786 155.5 68.3752 155.851 67.1803 156.386C66.582 156.654 66.1438 156.954 65.8652 157.25C65.5904 157.541 65.5 157.793 65.5 158ZM78.5 160.392C78.1791 160.613 77.8194 160.809 77.4333 160.982C76.0042 161.623 74.0826 162 72 162C69.9174 162 67.9958 161.623 66.5667 160.982C66.1806 160.809 65.8209 160.613 65.5 160.392V170C65.5 170.207 65.5904 170.459 65.8652 170.75C66.1438 171.046 66.582 171.346 67.1803 171.614C68.3752 172.149 70.0786 172.5 72 172.5C73.9214 172.5 75.6248 172.149 76.8197 171.614C77.418 171.346 77.8562 171.046 78.1348 170.75C78.4096 170.459 78.5 170.207 78.5 170V160.392Z" fill="#212121"/>
<text fill="black" fill-opacity="0.8956" xml:space="preserve" style="white-space: pre" font-family="Segoe UI Variable Text, Segoe UI, Arial, sans-serif" font-size="14" font-weight="600" letter-spacing="0em"><tspan x="96" y="169.797">Source Repository</tspan></text>
<rect x="252" y="140" width="130" height="48" rx="4" fill="black" fill-opacity="0.0578"/>
<path fill-rule="evenodd" clip-rule="evenodd" d="M282 152.296C275.373 152.296 270 157.669 270 164.296C270 169.598 273.438 174.096 278.206 175.683C278.806 175.794 279.026 175.423 279.026 175.106C279.026 174.82 279.015 173.874 279.01 172.872C275.672 173.598 274.967 171.456 274.967 171.456C274.421 170.069 273.635 169.7 273.635 169.7C272.546 168.955 273.717 168.97 273.717 168.97C274.922 169.055 275.556 170.207 275.556 170.207C276.627 172.042 278.364 171.511 279.048 171.205C279.156 170.429 279.467 169.9 279.81 169.6C277.145 169.297 274.343 168.267 274.343 163.669C274.343 162.359 274.812 161.289 275.579 160.448C275.455 160.146 275.044 158.926 275.696 157.273C275.696 157.273 276.703 156.95 278.996 158.503C279.954 158.237 280.98 158.104 282 158.099C283.02 158.104 284.047 158.237 285.006 158.503C287.297 156.95 288.303 157.273 288.303 157.273C288.956 158.926 288.545 160.146 288.421 160.448C289.19 161.289 289.656 162.359 289.656 163.669C289.656 168.279 286.848 169.293 284.176 169.59C284.607 169.963 284.99 170.693 284.99 171.813C284.99 173.418 284.976 174.71 284.976 175.106C284.976 175.425 285.192 175.799 285.8 175.681C290.566 174.093 294 169.596 294 164.296C294 157.669 288.627 152.296 282 152.296Z" fill="black" fill-opacity="0.8956"/>
<path d="M274.545 169.526C274.519 169.585 274.425 169.603 274.339 169.562C274.252 169.523 274.203 169.442 274.232 169.382C274.257 169.321 274.351 169.304 274.438 169.344C274.525 169.384 274.575 169.466 274.545 169.526V169.526Z" fill="black" fill-opacity="0.8956"/>
<path d="M275.031 170.068C274.974 170.121 274.862 170.096 274.786 170.012C274.707 169.929 274.693 169.817 274.751 169.763C274.81 169.71 274.918 169.735 274.997 169.818C275.076 169.903 275.091 170.014 275.031 170.068Z" fill="black" fill-opacity="0.8956"/>
<path d="M275.504 170.759C275.431 170.81 275.31 170.762 275.236 170.655C275.163 170.549 275.163 170.421 275.238 170.369C275.312 170.318 275.431 170.364 275.506 170.47C275.579 170.579 275.579 170.707 275.504 170.759Z" fill="black" fill-opacity="0.8956"/>
<path d="M276.152 171.427C276.087 171.499 275.947 171.48 275.844 171.381C275.739 171.284 275.71 171.147 275.776 171.074C275.843 171.001 275.983 171.022 276.087 171.12C276.191 171.217 276.222 171.355 276.152 171.427Z" fill="black" fill-opacity="0.8956"/>
<path d="M277.047 171.814C277.018 171.908 276.883 171.951 276.747 171.911C276.611 171.87 276.522 171.76 276.55 171.665C276.578 171.57 276.713 171.526 276.85 171.568C276.986 171.609 277.075 171.719 277.047 171.814V171.814Z" fill="black" fill-opacity="0.8956"/>
<path d="M278.029 171.886C278.032 171.985 277.917 172.067 277.774 172.069C277.631 172.072 277.514 171.992 277.513 171.895C277.513 171.795 277.626 171.714 277.769 171.711C277.912 171.708 278.029 171.788 278.029 171.886Z" fill="black" fill-opacity="0.8956"/>
<path d="M278.943 171.731C278.96 171.827 278.861 171.926 278.719 171.953C278.58 171.978 278.451 171.918 278.433 171.823C278.416 171.724 278.516 171.625 278.656 171.599C278.797 171.574 278.925 171.632 278.943 171.731V171.731Z" fill="black" fill-opacity="0.8956"/>
<text fill="black" fill-opacity="0.8956" xml:space="preserve" style="white-space: pre" font-family="Segoe UI Variable Text, Segoe UI, Arial, sans-serif" font-size="14" font-weight="600" letter-spacing="0em"><tspan x="306" y="169.797">GitHub</tspan></text>
<rect x="398" y="140" width="130" height="48" rx="4" fill="black" fill-opacity="0.0578"/>
<path d="M424.087 161.75C424.561 159.043 426.925 157 429.75 157C432.575 157 434.939 159.043 435.413 161.75L435.5 161.75C437.709 161.75 439.5 163.541 439.5 165.75C439.5 167.959 437.709 169.75 435.5 169.75H424C421.791 169.75 420 167.959 420 165.75C420 163.541 421.791 161.75 424 161.75L424.087 161.75ZM429.75 158.5C427.482 158.5 425.616 160.281 425.505 162.537C425.486 162.936 425.156 163.25 424.756 163.25L424 163.25C422.619 163.25 421.5 164.369 421.5 165.75C421.5 167.131 422.619 168.25 424 168.25H435.5C436.881 168.25 438 167.131 438 165.75C438 164.369 436.881 163.25 435.5 163.25L434.744 163.25C434.344 163.25 434.014 162.936 433.995 162.537C433.884 160.281 432.018 158.5 429.75 158.5Z" fill="#212121"/>
<text fill="black" fill-opacity="0.8956" xml:space="preserve" style="white-space: pre" font-family="Segoe UI Variable Text, Segoe UI, Arial, sans-serif" font-size="14" font-weight="600" letter-spacing="0em"><tspan x="454" y="169.797">Online</tspan></text>
<rect x="23.5" y="23.5" width="529" height="193" rx="8.5" stroke="black" stroke-opacity="0.0578"/>
</g>
<defs>
<filter id="filter0_d_20_10" x="487" y="405" width="538" height="202" filterUnits="userSpaceOnUse" color-interpolation-filters="sRGB">
<feFlood flood-opacity="0" result="BackgroundImageFix"/>
<feColorMatrix in="SourceAlpha" type="matrix" values="0 0 0 0 0 0 0 0 0 0 0 0 0 0 0 0 0 0 127 0" result="hardAlpha"/>
<feOffset dy="2"/>
<feGaussianBlur stdDeviation="2"/>
<feColorMatrix type="matrix" values="0 0 0 0 0 0 0 0 0 0 0 0 0 0 0 0 0 0 0.04 0"/>
<feBlend mode="normal" in2="BackgroundImageFix" result="effect1_dropShadow_20_10"/>
<feBlend mode="normal" in="SourceGraphic" in2="effect1_dropShadow_20_10" result="shape"/>
</filter>
<filter id="filter1_d_20_10" x="979" y="21" width="538" height="202" filterUnits="userSpaceOnUse" color-interpolation-filters="sRGB">
<feFlood flood-opacity="0" result="BackgroundImageFix"/>
<feColorMatrix in="SourceAlpha" type="matrix" values="0 0 0 0 0 0 0 0 0 0 0 0 0 0 0 0 0 0 127 0" result="hardAlpha"/>
<feOffset dy="2"/>
<feGaussianBlur stdDeviation="2"/>
<feColorMatrix type="matrix" values="0 0 0 0 0 0 0 0 0 0 0 0 0 0 0 0 0 0 0.04 0"/>
<feBlend mode="normal" in2="BackgroundImageFix" result="effect1_dropShadow_20_10"/>
<feBlend mode="normal" in="SourceGraphic" in2="effect1_dropShadow_20_10" result="shape"/>
</filter>
<filter id="filter2_d_20_10" x="19" y="21" width="538" height="202" filterUnits="userSpaceOnUse" color-interpolation-filters="sRGB">
<feFlood flood-opacity="0" result="BackgroundImageFix"/>
<feColorMatrix in="SourceAlpha" type="matrix" values="0 0 0 0 0 0 0 0 0 0 0 0 0 0 0 0 0 0 127 0" result="hardAlpha"/>
<feOffset dy="2"/>
<feGaussianBlur stdDeviation="2"/>
<feColorMatrix type="matrix" values="0 0 0 0 0 0 0 0 0 0 0 0 0 0 0 0 0 0 0.04 0"/>
<feBlend mode="normal" in2="BackgroundImageFix" result="effect1_dropShadow_20_10"/>
<feBlend mode="normal" in="SourceGraphic" in2="effect1_dropShadow_20_10" result="shape"/>
</filter>
</defs>
</svg>